:FULLY-SPECIFIED
:FORCE-ALL-JOINTS-BE-3DOF
:DEGREES
747
root 3.55514 18.7508 13.2037 -88.0479 2.14668 214.121
lfemur -37.4314 4.33167 -5.14063
ltibia 60.5524 0 0
lfoot -9.45263 7.98402 0
ltoes 26.7005 0 0
rfemur -23.986 -14.5696 11.3151
rtibia 71.6545 0 0
rfoot -0.323362 -28.1866 0
rtoes 7.74578 0 0
lowerback 3.47901 2.13454 -1.66224
upperback -1.21401 2.72173 -2.8847
thorax -3.04698 1.38468 -2.05472
lowerneck -5.99094 -6.71608 -1.69838
upperneck -1.66744 -8.84589 5.39119
head 0.827838 -4.35042 1.7308
lclavicle -1.94998e-15 -1.12077e-14 0
lhumerus -29.1262 -15.9162 57.1616
lradius 58.5799 0 0
lwrist 16.7978 0 0
lhand -20.7175 -4.86449 0
lfingers 7.12502 0 0
lthumb 5.64709 25.0377 0
rclavicle -1.94998e-15 -1.12077e-14 0
rhumerus -20.7295 24.3408 -70.8456
rradius 89.2285 0 0
rwrist -1.07895 0 0
rhand -24.8511 -26.9398 0
rfingers 7.12502 0 0
rthumb 1.65525 -776.898 0
748
root 3.49571 18.6667 13.3739 -87.2369 4.8946 216.637
lfemur -37.5271 4.87242 -5.5738
ltibia 60.2952 0 0
lfoot -9.94161 8.47745 0
ltoes 26.5789 0 0
rfemur -23.7062 -14.9763 11.6954
rtibia 71.0533 0 0
rfoot -0.96517 -28.4593 0
rtoes 6.7435 0 0
lowerback 3.39816 2.22043 -1.65682
upperback -1.21255 2.83958 -2.92438
thorax -2.99524 1.44348 -2.10246
lowerneck -5.96613 -6.72877 -1.67877
upperneck -1.70835 -8.86052 5.40557
head 0.810958 -4.35744 1.73311
lclavicle -2.12353e-15 -1.15232e-14 0
lhumerus -30.0087 -15.7739 58.4087
lradius 58.9845 0 0
lwrist 16.6107 0 0
lhand -20.6838 -4.91313 0
lfingers 7.12502 0 0
lthumb 5.67959 24.9882 0
rclavicle -2.12353e-15 -1.15232e-14 0
rhumerus -21.0059 25.1581 -72.1739
rradius 88.9256 0 0
rwrist -0.819804 0 0
rhand -24.7692 -26.6962 0
rfingers 7.12502 0 0
rthumb 1.73438 -776.654 0
749
root 3.43628 18.5826 13.5441 -86.4259 7.64252 219.153
lfemur -37.6228 5.41317 -6.00696
ltibia 60.038 0 0
lfoot -10.4306 8.97088 0
ltoes 26.4573 0 0
rfemur -23.4264 -15.383 12.0757
rtibia 70.452 0 0
rfoot -1.60698 -28.732 0
rtoes 5.74122 0 0
lowerback 3.3173 2.30633 -1.6514
upperback -1.2111 2.95743 -2.96406
thorax -2.94349 1.50229 -2.1502
lowerneck -5.94131 -6.74146 -1.65917
upperneck -1.74927 -8.87515 5.41996
head 0.794078 -4.36446 1.73543
lclavicle -2.29707e-15 -1.18387e-14 0
lhumerus -30.8911 -15.6316 59.6557
lradius 59.3891 0 0
lwrist 16.4235 0 0
lhand -20.6501 -4.96177 0
lfingers 7.12502 0 0
lthumb 5.7121 24.9387 0
rclavicle -2.29707e-15 -1.18387e-14 0
rhumerus -21.2824 25.9753 -73.5022
rradius 88.6228 0 0
rwrist -0.560653 0 0
rhand -24.6873 -26.4525 0
rfingers 7.12502 0 0
rthumb 1.81352 -776.41 0
750
root 3.37685 18.4986 13.7144 -85.6149 10.3904 221.669
lfemur -37.7185 5.95391 -6.44012
ltibia 59.7808 0 0
lfoot -10.9195 9.46432 0
ltoes 26.3357 0 0
rfemur -23.1467 -15.7897 12.456
rtibia 69.8507 0 0
rfoot -2.24879 -29.0047 0
rtoes 4.73894 0 0
lowerback 3.23645 2.39222 -1.64598
upperback -1.20965 3.07527 -3.00373
thorax -2.89174 1.56109 -2.19793
lowerneck -5.9165 -6.75415 -1.63956
upperneck -1.79019 -8.88977 5.43434
head 0.777198 -4.37148 1.73774
lclavicle -2.47061e-15 -1.21543e-14 0
lhumerus -31.7735 -15.4894 60.9028
lradius 59.7937 0 0
lwrist 16.2364 0 0
lhand -20.6165 -5.01041 0
lfingers 7.12502 0 0
lthumb 5.7446 24.8892 0
rclavicle -2.47061e-15 -1.21543e-14 0
rhumerus -21.5588 26.7925 -74.8305
rradius 88.3199 0 0
rwrist -0.301503 0 0
rhand -24.6053 -26.2089 0
rfingers 7.12502 0 0
rthumb 1.89265 -776.166 0
751
root 3.31742 18.4145 13.8846 -84.8039 13.1384 224.185
lfemur -37.8142 6.49466 -6.87328
ltibia 59.5236 0 0
lfoot -11.4085 9.95775 0
ltoes 26.2141 0 0
rfemur -22.8669 -16.1965 12.8363
rtibia 69.2494 0 0
rfoot -2.89059 -29.2774 0
rtoes 3.73666 0 0
lowerback 3.1556 2.47811 -1.64056
upperback -1.2082 3.19312 -3.04341
thorax -2.83999 1.6199 -2.24567
lowerneck -5.89169 -6.76684 -1.61996
upperneck -1.83111 -8.9044 5.44873
head 0.760318 -4.3785 1.74005
lclavicle -2.64415e-15 -1.24698e-14 0
lhumerus -32.6559 -15.3471 62.1499
lradius 60.1983 0 0
lwrist 16.0492 0 0
lhand -20.5828 -5.05906 0
lfingers 7.12502 0 0
lthumb 5.7771 24.8397 0
rclavicle -2.64415e-15 -1.24698e-14 0
rhumerus -21.8352 27.6097 -76.1588
rradius 88.0171 0 0
rwrist -0.0423524 0 0
rhand -24.5234 -25.9653 0
rfingers 7.12502 0 0
rthumb 1.97179 -775.921 0
752
root 3.25799 18.3304 14.0549 -83.9929 15.8863 226.701
lfemur -37.9099 7.03541 -7.30644
ltibia 59.2665 0 0
lfoot -11.8975 10.4512 0
ltoes 26.0925 0 0
rfemur -22.5871 -16.6032 13.2167
rtibia 68.6482 0 0
rfoot -3.5324 -29.5501 0
rtoes 2.73438 0 0
lowerback 3.07475 2.564 -1.63514
upperback -1.20674 3.31097 -3.08309
thorax -2.78824 1.6787 -2.29341
lowerneck -5.86688 -6.77953 -1.60035
upperneck -1.87202 -8.91903 5.46311
head 0.743438 -4.38552 1.74236
lclavicle -2.81769e-15 -1.27853e-14 0
lhumerus -33.5383 -15.2048 63.3969
lradius 60.6028 0 0
lwrist 15.8621 0 0
lhand -20.5491 -5.1077 0
lfingers 7.12502 0 0
lthumb 5.80961 24.7902 0
rclavicle -2.81769e-15 -1.27853e-14 0
rhumerus -22.1117 28.427 -77.4871
rradius 87.7142 0 0
rwrist 0.216798 0 0
rhand -24.4415 -25.7216 0
rfingers 7.12502 0 0
rthumb 2.05092 -775.677 0
753
root 3.19856 18.2464 14.2251 -83.1819 18.6342 229.217
lfemur -38.0056 7.57616 -7.73961
ltibia 59.0093 0 0
lfoot -12.3865 10.9446 0
ltoes 25.9709 0 0
rfemur -22.3073 -17.0099 13.597
rtibia 68.0469 0 0
rfoot -4.17421 -29.8228 0
rtoes 1.7321 0 0
lowerback 2.9939 2.64989 -1.62971
upperback -1.20529 3.42881 -3.12277
thorax -2.7365 1.7375 -2.34115
lowerneck -5.84207 -6.79222 -1.58075
upperneck -1.91294 -8.93365 5.4775
head 0.726558 -4.39255 1.74468
lclavicle -2.99124e-15 -1.31009e-14 0
lhumerus -34.4207 -15.0625 64.644
lradius 61.0074 0 0
lwrist 15.6749 0 0
lhand -20.5155 -5.15634 0
lfingers 7.12502 0 0
lthumb 5.84211 24.7407 0
rclavicle -2.99124e-15 -1.31009e-14 0
rhumerus -22.3881 29.2442 -78.8155
rradius 87.4114 0 0
rwrist 0.475949 0 0
rhand -24.3595 -25.478 0
rfingers 7.12502 0 0
rthumb 2.13006 -775.433 0
754
root 3.13913 18.1623 14.3954 -82.3709 21.3821 231.733
lfemur -38.1013 8.1169 -8.17277
ltibia 58.7521 0 0
lfoot -12.8754 11.438 0
ltoes 25.8493 0 0
rfemur -22.0275 -17.4166 13.9773
rtibia 67.4456 0 0
rfoot -4.81602 -30.0955 0
rtoes 0.729825 0 0
lowerback 2.91305 2.73578 -1.62429
upperback -1.20384 3.54666 -3.16245
thorax -2.68475 1.79631 -2.38888
lowerneck -5.81725 -6.80491 -1.56114
upperneck -1.95386 -8.94828 5.49188
head 0.709678 -4.39957 1.74699
lclavicle -3.16478e-15 -1.34164e-14 0
lhumerus -35.3031 -14.9203 65.891
lradius 61.412 0 0
lwrist 15.4878 0 0
lhand -20.4818 -5.20498 0
lfingers 7.12502 0 0
lthumb 5.87462 24.6912 0
rclavicle -3.16478e-15 -1.34164e-14 0
rhumerus -22.6645 30.0614 -80.1438
rradius 87.1085 0 0
rwrist 0.735099 0 0
rhand -24.2776 -25.2344 0
rfingers 7.12502 0 0
rthumb 2.20919 -775.189 0
755
root 3.0797 18.0783 14.5656 -81.5599 24.13 234.249
lfemur -38.197 8.65765 -8.60593
ltibia 58.4949 0 0
lfoot -13.3644 11.9315 0
ltoes 25.7277 0 0
rfemur -21.7477 -17.8233 14.3576
rtibia 66.8443 0 0
rfoot -5.45783 -30.3682 0
rtoes -0.272454 0 0
lowerback 2.83219 2.82167 -1.61887
upperback -1.20239 3.66451 -3.20213
thorax -2.633 1.85511 -2.43662
lowerneck -5.79244 -6.8176 -1.54154
upperneck -1.99477 -8.9629 5.50627
head 0.692798 -4.40659 1.7493
lclavicle -3.33832e-15 -1.37319e-14 0
lhumerus -36.1855 -14.778 67.1381
lradius 61.8166 0 0
lwrist 15.3006 0 0
lhand -20.4481 -5.25362 0
lfingers 7.12502 0 0
lthumb 5.90712 24.6417 0
rclavicle -3.33832e-15 -1.37319e-14 0
rhumerus -22.941 30.8786 -81.4721
rradius 86.8057 0 0
rwrist 0.99425 0 0
rhand -24.1956 -24.9907 0
rfingers 7.12502 0 0
rthumb 2.28833 -774.945 0
756
root 3.02027 17.9942 14.7358 -80.7489 26.878 236.765
lfemur -38.2927 9.1984 -9.03909
ltibia 58.2377 0 0
lfoot -13.8534 12.4249 0
ltoes 25.6061 0 0
rfemur -21.4679 -18.23 14.7379
rtibia 66.2431 0 0
rfoot -6.09963 -30.6409 0
rtoes -1.27473 0 0
lowerback 2.75134 2.90756 -1.61345
upperback -1.20093 3.78236 -3.24181
thorax -2.58125 1.91392 -2.48436
lowerneck -5.76763 -6.83029 -1.52193
upperneck -2.03569 -8.97753 5.52065
head 0.675918 -4.41361 1.75162
lclavicle -3.51186e-15 -1.40474e-14 0
lhumerus -37.0679 -14.6357 68.3851
lradius 62.2212 0 0
lwrist 15.1135 0 0
lhand -20.4145 -5.30227 0
lfingers 7.12502 0 0
lthumb 5.93963 24.5922 0
rclavicle -3.51186e-15 -1.40474e-14 0
rhumerus -23.2174 31.6959 -82.8004
rradius 86.5028 0 0
rwrist 1.2534 0 0
rhand -24.1137 -24.7471 0
rfingers 7.12502 0 0
rthumb 2.36746 -774.7 0
757
root 2.96084 17.9101 14.9061 -79.9379 29.6259 239.281
lfemur -38.3884 9.73915 -9.47226
ltibia 57.9806 0 0
lfoot -14.3424 12.9183 0
ltoes 25.4845 0 0
rfemur -21.1881 -18.6367 15.1182
rtibia 65.6418 0 0
rfoot -6.74144 -30.9136 0
rtoes -2.27701 0 0
lowerback 2.67049 2.99346 -1.60803
upperback -1.19948 3.9002 -3.28149
thorax -2.52951 1.97272 -2.5321
lowerneck -5.74282 -6.84298 -1.50233
upperneck -2.07661 -8.99216 5.53504
head 0.659038 -4.42063 1.75393
lclavicle -3.68541e-15 -1.4363e-14 0
lhumerus -37.9503 -14.4934 69.6322
lradius 62.6257 0 0
lwrist 14.9264 0 0
lhand -20.3808 -5.35091 0
lfingers 7.12502 0 0
lthumb 5.97213 24.5427 0
rclavicle -3.68541e-15 -1.4363e-14 0
rhumerus -23.4938 32.5131 -84.1287
rradius 86.2 0 0
rwrist 1.51255 0 0
rhand -24.0318 -24.5035 0
rfingers 7.12502 0 0
rthumb 2.4466 -774.456 0
758
root 2.90141 17.8261 15.0763 -79.1269 32.3738 241.797
lfemur -38.4841 10.2799 -9.90542
ltibia 57.7234 0 0
lfoot -14.8313 13.4118 0
ltoes 25.3629 0 0
rfemur -20.9084 -19.0434 15.4985
rtibia 65.0405 0 0
rfoot -7.38325 -31.1863 0
rtoes -3.27929 0 0
lowerback 2.58964 3.07935 -1.60261
upperback -1.19803 4.01805 -3.32116
thorax -2.47776 2.03153 -2.57984
lowerneck -5.71801 -6.85567 -1.48272
upperneck -2.11753 -9.00678 5.54942
head 0.642158 -4.42765 1.75624
lclavicle -3.85895e-15 -1.46785e-14 0
lhumerus -38.8327 -14.3511 70.8792
lradius 63.0303 0 0
lwrist 14.7392 0 0
lhand -20.3471 -5.39955 0
lfingers 7.12502 0 0
lthumb 6.00464 24.4932 0
rclavicle -3.85895e-15 -1.46785e-14 0
rhumerus -23.7703 33.3303 -85.457
rradius 85.8971 0 0
rwrist 1.7717 0 0
rhand -23.9498 -24.2598 0
rfingers 7.12502 0 0
rthumb 2.52573 -774.212 0
759
root 2.84198 17.742 15.2466 -78.3159 35.1217 244.313
lfemur -38.5798 10.8206 -10.3386
ltibia 57.4662 0 0
lfoot -15.3203 13.9052 0
ltoes 25.2413 0 0
rfemur -20.6286 -19.4501 15.8789
rtibia 64.4392 0 0
rfoot -8.02506 -31.459 0
rtoes -4.28157 0 0
lowerback 2.50879 3.16524 -1.59719
upperback -1.19658 4.1359 -3.36084
thorax -2.42601 2.09033 -2.62757
lowerneck -5.69319 -6.86836 -1.46312
upperneck -2.15844 -9.02141 5.56381
head 0.625278 -4.43467 1.75856
lclavicle -4.03249e-15 -1.4994e-14 0
lhumerus -39.7151 -14.2089 72.1263
lradius 63.4349 0 0
lwrist 14.5521 0 0
lhand -20.3135 -5.44819 0
lfingers 7.12502 0 0
lthumb 6.03714 24.4437 0
rclavicle -4.03249e-15 -1.4994e-14 0
rhumerus -24.0467 34.1475 -86.7853
rradius 85.5943 0 0
rwrist 2.03085 0 0
rhand -23.8679 -24.0162 0
rfingers 7.12502 0 0
rthumb 2.60487 -773.968 0
760
root 2.78255 17.658 15.4168 -77.5049 37.8696 246.829
lfemur -38.6755 11.3614 -10.7717
ltibia 57.209 0 0
lfoot -15.8093 14.3986 0
ltoes 25.1197 0 0
rfemur -20.3488 -19.8568 16.2592
rtibia 63.838 0 0
rfoot -8.66687 -31.7317 0
rtoes -5.28385 0 0
lowerback 2.42794 3.25113 -1.59176
upperback -1.19512 4.25375 -3.40052
thorax -2.37426 2.14914 -2.67531
lowerneck -5.66838 -6.88105 -1.44351
upperneck -2.19936 -9.03603 5.57819
head 0.608398 -4.4417 1.76087
lclavicle -4.20603e-15 -1.53096e-14 0
lhumerus -40.5976 -14.0666 73.3734
lradius 63.8395 0 0
lwrist 14.3649 0 0
lhand -20.2798 -5.49683 0
lfingers 7.12502 0 0
lthumb 6.06964 24.3942 0
rclavicle -4.20603e-15 -1.53096e-14 0
rhumerus -24.3231 34.9648 -88.1137
rradius 85.2914 0 0
rwrist 2.29 0 0
rhand -23.7859 -23.7726 0
rfingers 7.12502 0 0
rthumb 2.684 -773.724 0
